<svg xmlns="http://www.w3.org/2000/svg" xmlns:xlink="http://www.w3.org/1999/xlink" width="640" height="640" preserveAspectRatio="xMidYMid meet" version="1.1" viewBox="0 0 640 640"><defs id="lineBorder"><path id="gJpQyGdP8" d="M103.14 119.33C69.89 139.85 49.65 176.14 49.65 215.22C49.65 268.79 49.65 366.63 49.65 420.2C49.65 459.28 69.89 495.57 103.14 516.09C146.02 542.56 221.17 588.94 264.05 615.41C296.85 635.65 338.25 635.65 371.05 615.41C413.93 588.94 489.08 542.56 531.96 516.09C565.21 495.57 585.45 459.28 585.45 420.2C585.45 366.63 585.45 268.79 585.45 215.22C585.45 176.14 565.21 139.85 531.96 119.33C489.08 92.86 413.93 46.48 371.05 20.01C338.25 -0.23 296.85 -0.23 264.05 20.01C221.17 46.48 146.02 92.86 103.14 119.33Z"/></defs><g><g><g id="line2"><use fill="#60996c" fill-opacity="0" opacity="1" xlink:href="#gJpQyGdP8"/><g><use fill-opacity="0" stroke="#fff" stroke-opacity="1" stroke-width="2" opacity="1" xlink:href="#gJpQyGdP8"/></g></g></g></g></svg>